<svg width="31" height="25" viewBox="0 0 31 25" fill="none" xmlns="http://www.w3.org/2000/svg">
<g id="Icon">
<path id="Shape" fill-rule="evenodd" clip-rule="evenodd" d="M1.7278 23.3112C-0.192771 21.3906 0.175691 17.908 2.55084 15.5328C4.92622 13.1575 8.41668 12.7811 10.3294 14.7098C10.9253 15.3105 11.7435 15.3659 12.3195 14.8993L12.8516 14.4681L14.4093 15.1127L15.1891 16.8056L9.50636 22.4884C7.13122 24.8635 3.64861 25.232 1.7278 23.3112ZM8.24815 16.732C7.40872 15.8925 5.76334 16.1769 4.57299 17.3673C3.38288 18.5574 3.09845 20.2028 3.93788 21.0422C4.77731 21.8816 6.42269 21.5972 7.6128 20.4071C8.80315 19.2168 9.08757 17.5714 8.24815 16.732Z" fill="#9AD880"/>
<path id="Shape_2" d="M23.1078 0.937322L14.7119 9.33299C14.0489 9.99604 13.6675 10.892 13.6633 11.8296C13.6599 12.6588 13.4909 13.7178 12.8516 14.4681L15.1891 16.8057L24.0147 7.97988C24.0147 7.97988 27.1861 4.80848 25.6769 1.41314C25.2256 0.397326 23.8937 0.151223 23.1078 0.937322Z" fill="#D8D7DA"/>
<path id="Shape_3" d="M17.1145 6.93042L14.7119 9.33304C14.0489 9.99609 13.6675 10.8921 13.6633 11.8296C13.6599 12.6589 13.4909 13.7179 12.8516 14.4682L15.1891 16.8057L20.2303 11.7643C19.6372 9.40946 18.2753 7.86589 17.1145 6.93042Z" fill="#C6C5CA"/>
<path id="Shape_4" fill-rule="evenodd" clip-rule="evenodd" d="M18.0588 14.8993C18.635 15.3659 19.4532 15.3105 20.0489 14.7098C21.9616 12.7811 25.452 13.1575 27.8274 15.5328C30.2026 17.908 30.571 21.3906 28.6505 23.3112C26.7296 25.232 23.247 24.8635 20.8719 22.4884L15.1891 16.8056L15.969 15.1127L17.5266 14.4681L18.0588 14.8993ZM22.7654 20.4071C23.9558 21.5972 25.6012 21.8816 26.4404 21.0422C27.2798 20.2028 26.9954 18.5574 25.8053 17.3673C24.6149 16.1769 22.9695 15.8925 22.1303 16.732C21.2909 17.5714 21.5753 19.2168 22.7654 20.4071Z" fill="#B2E59C"/>
<path id="Shape_5" d="M7.27043 0.937322L15.6663 9.33299C16.3294 9.99604 16.7108 10.892 16.7149 11.8296C16.7184 12.6588 16.8874 13.7178 17.5264 14.4681L15.1891 16.8057L6.36359 7.98011C6.36359 7.98011 3.19218 4.80848 4.70135 1.41314C5.15293 0.397326 6.48456 0.151223 7.27043 0.937322Z" fill="#EAEAEA"/>
<path id="Shape_6" d="M15.2471 12.0128C15.2471 12.6708 14.7138 13.2043 14.0558 13.2043C13.3981 13.2043 12.8645 12.6708 12.8645 12.0128C12.8645 11.3551 13.3981 10.8215 14.0558 10.8215C14.7138 10.8215 15.2471 11.3551 15.2471 12.0128Z" fill="#9AD880"/>
<path id="Shape_7" fill-rule="evenodd" clip-rule="evenodd" d="M15.6906 12.0129C15.6906 12.9145 14.9573 13.6477 14.0558 13.6477C13.1545 13.6477 12.4213 12.9145 12.4213 12.0129C12.4213 11.1116 13.1545 10.3784 14.0558 10.3784C14.9573 10.3784 15.6906 11.1116 15.6906 12.0129ZM14.8038 12.0129C14.8038 11.6006 14.4684 11.2652 14.0558 11.2652C13.6435 11.2652 13.308 11.6006 13.308 12.0129C13.308 12.4253 13.6435 12.761 14.0558 12.761C14.4684 12.761 14.8038 12.4253 14.8038 12.0129Z" fill="black"/>
<path id="Shape_8" fill-rule="evenodd" clip-rule="evenodd" d="M23.9117 15.8517C24.6953 15.9869 25.479 16.4138 26.1188 17.0538C26.7585 17.6935 27.1854 18.4773 27.3209 19.2608C27.4661 20.101 27.2784 20.8591 26.7541 21.3557C25.0845 22.9369 23.0917 21.3603 22.4519 20.7206C21.8122 20.0807 21.3853 19.2969 21.2498 18.5135C21.1046 17.6732 21.3059 16.9293 21.8168 16.4184C22.3275 15.9078 23.0716 15.7064 23.9117 15.8517ZM23.079 20.0936C23.5906 20.6049 25.1817 21.6872 26.1269 20.7287C26.7763 20.0703 26.49 18.6791 25.4917 17.6808C24.8555 17.0445 24.0576 16.6957 23.3934 16.6957C23.0155 16.6957 22.681 16.8084 22.4439 17.0455C21.7898 17.6995 22.0807 19.0953 23.079 20.0936Z" fill="black"/>
<path id="Shape_9" fill-rule="evenodd" clip-rule="evenodd" d="M28.1409 15.2194C26.7509 13.8293 24.9446 13.0328 23.1831 13.0328H23.1711C21.8249 13.0356 20.5953 13.5117 19.7339 14.3977C18.9562 15.1979 18.1883 14.4335 18.1883 14.4335L24.3284 8.29363C24.3628 8.25923 25.1798 7.43481 25.809 6.16712C26.6602 4.45225 26.7546 2.74592 26.0821 1.23306C25.811 0.622879 25.2567 0.18585 24.5997 0.0637217C23.9419 -0.0584063 23.2669 0.150989 22.7943 0.623802L16.261 7.15684C16.0879 7.32999 16.0879 7.61073 16.261 7.78388C16.4342 7.95726 16.7149 7.95726 16.8881 7.78388L23.4213 1.25083C23.6915 0.980721 24.062 0.865981 24.4378 0.935702C24.813 1.00519 25.117 1.24483 25.2717 1.59321C25.8385 2.86828 25.7556 4.26687 25.0256 5.75041C24.4628 6.89435 23.7083 7.65921 23.7011 7.66636L17.5904 13.7774C17.2261 13.1079 17.1603 12.2996 17.1582 11.8277C17.1536 10.772 16.7352 9.77486 15.9798 9.01947L7.58417 0.623802C7.11136 0.150989 6.43654 -0.0581755 5.77857 0.0637217C5.12153 0.185619 4.56745 0.622879 4.29618 1.23306C3.62367 2.74592 3.71809 4.45225 4.5693 6.16712C5.19864 7.43481 6.01544 8.25923 6.05007 8.29363L12.1899 14.4335C12.1899 14.4335 11.4484 15.1771 10.6441 14.3977C9.75685 13.5375 8.55335 13.0356 7.20717 13.0328H7.19517C5.43389 13.0328 3.62736 13.8293 2.23732 15.2194C-0.307051 17.7637 -0.676206 21.5345 1.41428 23.6247C2.3082 24.5186 3.54495 24.9811 4.88073 24.9811C5.73909 24.9808 6.63855 24.7899 7.51353 24.3998C7.73724 24.3 7.83766 24.038 7.73793 23.8143C7.63843 23.5906 7.37616 23.4901 7.15245 23.5899C5.25381 24.4362 3.24759 24.204 2.04132 22.9977C1.20904 22.1654 0.828347 20.9725 0.969406 19.6391C1.11416 18.2705 1.78713 16.9236 2.86435 15.8464C4.08933 14.6214 5.66706 13.9196 7.19493 13.9196H7.20532C8.3301 13.9219 9.27596 14.3294 10.0145 15.022C11.3909 16.3128 12.8204 15.064 12.8204 15.064L14.5621 16.8057C14.5621 16.8057 10.0032 21.5354 8.66693 22.6512C8.47878 22.8082 8.44946 23.0857 8.6046 23.275C8.69233 23.3823 8.94259 23.5215 9.22863 23.3373C9.91061 22.898 15.1891 17.4327 15.1891 17.4327L20.5584 22.8019C21.7785 24.0221 23.7166 24.9857 25.5194 24.9857C26.8693 24.9857 28.0754 24.5131 28.964 23.6247C31.0545 21.5342 30.6853 17.7635 28.1409 15.2194ZM5.35262 5.75041C4.62263 4.26686 4.51966 2.85905 5.10652 1.59321C5.57772 0.576475 6.60415 0.90061 6.95691 1.25083L15.3528 9.6465C15.9415 10.2354 16.2677 11.0114 16.2714 11.8314C16.2747 12.5764 16.4005 13.5908 16.9426 14.425L15.1891 16.1786L6.67733 7.66683L6.67683 7.66631C6.65364 7.64261 5.90961 6.8822 5.35262 5.75041ZM21.1854 22.1749C23.3839 24.3734 26.5921 24.7426 28.3369 22.9977C30.0816 21.253 29.7124 18.0449 27.5139 15.8462C26.2889 14.6214 24.7112 13.9194 23.1833 13.9194H23.1729C22.0481 13.9217 21.0933 14.3197 20.3638 15.022C18.8848 16.4455 17.5578 15.064 17.5578 15.064L15.8162 16.8057L21.1854 22.1749Z" fill="black"/>
<path id="Shape_10" fill-rule="evenodd" clip-rule="evenodd" d="M6.46655 15.8517C7.30667 15.7064 8.05075 15.9078 8.56166 16.4184C9.07234 16.9293 9.27365 17.6732 9.12844 18.5135C8.99292 19.2969 8.56605 20.0807 7.92632 20.7206C7.28636 21.3603 5.11968 22.8437 3.62413 21.3557C3.11207 20.8464 2.91214 20.101 3.05736 19.2608C3.19288 18.4773 3.61975 17.6935 4.25948 17.0538C4.89921 16.414 5.68299 15.9869 6.46655 15.8517ZM4.2514 20.7287C5.1991 21.6833 6.78769 20.6049 7.29929 20.0936C8.29755 19.0953 8.58844 17.6995 7.93463 17.0455C7.28059 16.3916 5.88477 16.6825 4.88651 17.6808C3.88824 18.6791 3.59989 20.0726 4.2514 20.7287Z" fill="black"/>
</g>
</svg>
