<svg width="40" height="25" viewBox="0 0 40 25" fill="none" xmlns="http://www.w3.org/2000/svg">
<g id="Icon">
<path id="Shape" d="M26.6739 15.9253H3.90864C2.06568 15.9253 0.571655 14.4313 0.571655 12.5883V3.90852C0.571655 2.06555 2.06568 0.571533 3.90864 0.571533H26.6739C28.5168 0.571533 30.0108 2.06555 30.0108 3.90852V12.5883C30.0108 14.4313 28.5168 15.9253 26.6739 15.9253Z" fill="#86D7EA"/>
<path id="Shape_2" d="M25.3787 8.24878H0.571655V12.5987C0.571655 14.436 2.06121 15.9255 3.89852 15.9255H26.684C27.4447 15.9255 28.1453 15.6698 28.7056 15.2401V11.5756C28.7056 9.73833 27.216 8.24878 25.3787 8.24878Z" fill="#71C5E2"/>
<path id="Shape_3" d="M30.9049 20.1462H8.11947C6.28216 20.1462 4.7926 18.6567 4.7926 16.8194V8.11934C4.7926 6.28204 6.28216 4.79248 8.11947 4.79248H30.9049C32.7422 4.79248 34.2318 6.28204 34.2318 8.11934V16.8194C34.2318 18.6567 32.7422 20.1462 30.9049 20.1462Z" fill="#A2E5F4"/>
<path id="Shape_4" d="M29.5997 12.4697H4.7926V16.8196C4.7926 18.6569 6.28216 20.1465 8.11947 20.1465H30.9049C31.6653 20.1465 32.3662 19.8907 32.9265 19.4611V15.7966C32.9265 13.9593 31.437 12.4697 29.5997 12.4697Z" fill="#86D7EA"/>
<path id="Shape_5" d="M35.1259 24.3674H12.3404C10.5031 24.3674 9.01355 22.8779 9.01355 21.0406V12.3405C9.01355 10.5032 10.5031 9.01367 12.3404 9.01367H35.1259C36.9632 9.01367 38.4527 10.5032 38.4527 12.3405V21.0406C38.4527 22.8779 36.9632 24.3674 35.1259 24.3674Z" fill="#CCF8FF"/>
<path id="Shape_6" d="M14.6386 21.0406V12.3405C14.6386 10.5032 16.1282 9.01367 17.9658 9.01367H12.3404C10.5031 9.01367 9.01355 10.5032 9.01355 12.3405V21.0406C9.01355 22.8779 10.5031 24.3674 12.3404 24.3674H17.9658C16.1282 24.3674 14.6386 22.8779 14.6386 21.0406Z" fill="#B7F3F9"/>
<path id="Shape_7" d="M16.5611 13.6272C16.5611 14.9637 15.4779 16.0469 14.1414 16.0469C12.8052 16.0469 11.7217 14.9637 11.7217 13.6272C11.7217 12.291 12.8052 11.2075 14.1414 11.2075C15.4779 11.2075 16.5611 12.291 16.5611 13.6272Z" fill="#B2E59C"/>
<path id="Shape_8" d="M25.842 14.9531H20.406C19.6769 14.9531 19.0802 14.3565 19.0802 13.6273C19.0802 12.8982 19.6769 12.3015 20.406 12.3015H25.842C26.5711 12.3015 27.1678 12.8982 27.1678 13.6273C27.1678 14.3565 26.5711 14.9531 25.842 14.9531Z" fill="#D8D7DA"/>
<g id="Group">
<path id="Shape_9" d="M34.9967 20.3C34.9967 21.0491 34.3896 21.6561 33.6408 21.6561C32.892 21.6561 32.2846 21.0491 32.2846 20.3C32.2846 19.5512 32.892 18.9441 33.6408 18.9441C34.3896 18.9441 34.9967 19.5512 34.9967 20.3Z" fill="#FFDE55"/>
<path id="Shape_10" d="M29.8798 20.3C29.8798 21.0491 29.2728 21.6561 28.5237 21.6561C27.7749 21.6561 27.1678 21.0491 27.1678 20.3C27.1678 19.5512 27.7749 18.9441 28.5237 18.9441C29.2728 18.9441 29.8798 19.5512 29.8798 20.3Z" fill="#FFDE55"/>
<path id="Shape_11" d="M24.7627 20.3C24.7627 21.0491 24.1556 21.6561 23.4068 21.6561C22.6577 21.6561 22.0507 21.0491 22.0507 20.3C22.0507 19.5512 22.6577 18.9441 23.4068 18.9441C24.1556 18.9441 24.7627 19.5512 24.7627 20.3Z" fill="#FFDE55"/>
</g>
<path id="Shape_12" d="M32.0336 15.1584C32.1453 15.2701 32.538 15.4696 32.8423 15.1584L33.5649 14.4358L34.2875 15.1584C34.6293 15.4586 34.9845 15.2701 35.0961 15.1584C35.3191 14.9351 35.3191 14.5731 35.0961 14.3501L34.3732 13.6272L35.0961 12.9046C35.3191 12.6813 35.3191 12.3193 35.0961 12.096C34.8728 11.873 34.5108 11.873 34.2875 12.096L33.5649 12.8189L32.8423 12.096C32.619 11.873 32.2569 11.873 32.0336 12.096C31.8103 12.3196 31.8103 12.6813 32.0336 12.9046L32.7565 13.6272L32.0336 14.3501C31.8103 14.5734 31.8103 14.9351 32.0336 15.1584Z" fill="black"/>
<path id="Shape_13" fill-rule="evenodd" clip-rule="evenodd" d="M30.5825 4.22095C34.9321 4.22095 34.8034 8.44191 34.8034 8.44191C39.0244 8.44191 39.0244 12.3404 39.0244 12.3404V21.0405C39.0244 23.1901 37.2755 24.939 35.1259 24.939H12.3404C10.1908 24.939 8.44191 23.1901 8.44191 21.0405V12.3404C8.44191 10.1908 10.1908 8.44191 12.3404 8.44191H33.6601C33.6601 8.44191 33.9629 5.44106 30.9049 5.36425H27.3071C26.9915 5.36425 26.7355 5.10849 26.7355 4.7926C26.7355 4.47671 26.9915 4.22095 27.3071 4.22095H29.4392C29.4392 4.22095 29.5714 1.14329 26.6739 1.14329H3.90863C2.38394 1.14329 1.14329 2.38394 1.14329 3.90863V12.5884C1.14329 15.3416 4.22095 15.3538 4.22095 15.3538V8.11946C4.22095 5.96983 5.96983 4.22095 8.11946 4.22095H24.6904C25.006 4.22095 25.262 4.47671 25.262 4.7926C25.262 5.10849 25.006 5.36425 24.6904 5.36425H8.11946C6.60013 5.36425 5.36425 6.60013 5.36425 8.11946V16.8195C5.36425 17.8342 5.91952 18.7643 6.81391 19.2466C7.09169 19.3964 7.1956 19.7429 7.04554 20.021C6.94253 20.2125 6.68439 20.4822 6.27114 20.253C4.15456 19.0787 4.22095 16.4971 4.22095 16.4971C4.22095 16.4971 0 16.6185 0 12.5884V3.90863C0 1.75335 1.75335 0 3.90863 0H26.6742C30.5649 0 30.5825 4.22095 30.5825 4.22095ZM35.1259 23.7957C36.6449 23.7957 37.8811 22.5598 37.8811 21.0405V12.3404C37.8811 10.8214 36.6449 9.5852 35.1259 9.5852H12.3404C10.8211 9.5852 9.5852 10.8211 9.5852 12.3404V21.0405C9.5852 22.5595 10.8211 23.7957 12.3404 23.7957H35.1259Z" fill="black"/>
<path id="Shape_14" fill-rule="evenodd" clip-rule="evenodd" d="M11.1501 13.6273C11.1501 11.9779 12.492 10.636 14.1414 10.636C15.7908 10.636 17.1327 11.9779 17.1327 13.6273C17.1327 15.2767 15.7908 16.6186 14.1414 16.6186C12.492 16.6186 11.1501 15.2767 11.1501 13.6273ZM12.2934 13.6273C12.2934 14.6464 13.1226 15.4753 14.1414 15.4753C15.1605 15.4753 15.9894 14.6464 15.9894 13.6273C15.9894 12.6085 15.1605 11.7796 14.1414 11.7796C13.1226 11.7796 12.2934 12.6085 12.2934 13.6273Z" fill="black"/>
<path id="Shape_15" fill-rule="evenodd" clip-rule="evenodd" d="M25.842 11.7297C26.8882 11.7297 27.7394 12.581 27.7394 13.6272C27.7394 14.6734 26.8882 15.5246 25.842 15.5246H20.406C19.3595 15.5246 18.5085 14.6734 18.5085 13.6272C18.5085 12.581 19.3598 11.7297 20.406 11.7297H25.842ZM20.406 14.3813H25.842C26.2579 14.3813 26.5961 14.0431 26.5961 13.6272C26.5961 13.2116 26.2579 12.873 25.842 12.873H20.406C19.9901 12.873 19.6518 13.2116 19.6518 13.6272C19.6518 14.0431 19.9901 14.3813 20.406 14.3813Z" fill="black"/>
<path id="Shape_16" fill-rule="evenodd" clip-rule="evenodd" d="M31.713 20.3001C31.713 19.2372 32.5779 18.3726 33.6408 18.3726C34.7037 18.3726 35.5683 19.2372 35.5683 20.3001C35.5683 21.363 34.7037 22.2279 33.6408 22.2279C32.5779 22.2279 31.713 21.363 31.713 20.3001ZM32.8563 20.3001C32.8563 20.7327 33.2082 21.0846 33.6408 21.0846C34.0731 21.0846 34.425 20.7327 34.425 20.3001C34.425 19.8675 34.0734 19.5159 33.6408 19.5159C33.2082 19.5159 32.8563 19.8675 32.8563 20.3001Z" fill="black"/>
<path id="Shape_17" fill-rule="evenodd" clip-rule="evenodd" d="M26.5961 20.3001C26.5961 19.2372 27.4607 18.3726 28.5237 18.3726C29.5869 18.3726 30.4515 19.2372 30.4515 20.3001C30.4515 21.363 29.5866 22.2279 28.5237 22.2279C27.4607 22.2279 26.5961 21.363 26.5961 20.3001ZM27.7394 20.3001C27.7394 20.7327 28.0913 21.0846 28.5237 21.0846C28.9563 21.0846 29.3082 20.7327 29.3082 20.3001C29.3082 19.8675 28.9563 19.5159 28.5237 19.5159C28.0913 19.5159 27.7394 19.8675 27.7394 20.3001Z" fill="black"/>
<path id="Shape_18" fill-rule="evenodd" clip-rule="evenodd" d="M21.479 20.3001C21.479 19.2372 22.3439 18.3726 23.4068 18.3726C24.4697 18.3726 25.3343 19.2372 25.3346 20.3001C25.3346 21.363 24.4697 22.2279 23.4068 22.2279C22.3439 22.2279 21.479 21.363 21.479 20.3001ZM22.6223 20.3001C22.6223 20.7327 22.9742 21.0846 23.4068 21.0846C23.8391 21.0846 24.1913 20.7327 24.1913 20.3001C24.1913 19.8675 23.8394 19.5159 23.4068 19.5159C22.9742 19.5159 22.6223 19.8675 22.6223 20.3001Z" fill="black"/>
</g>
</svg>
