<svg width="24" height="35" viewBox="0 0 24 35" fill="none" xmlns="http://www.w3.org/2000/svg">
<g id="Icon">
<path id="Shape" d="M7 28.8235V29.7985C7 32.2818 9.04761 34.3137 11.5501 34.3137C14.0527 34.3137 16.1 32.2818 16.1 29.7985V28.8235H7Z" fill="#C6C5CA"/>
<path id="Shape_2" d="M7 29.7945C7 31.4105 7.87424 32.8346 9.17832 33.6274C11.514 31.801 14.1211 31.6305 15.6524 31.7339C15.9391 31.1458 16.1 30.488 16.1 29.7945V28.8235H7V29.7945Z" fill="#ACABB1"/>
<path id="Shape_3" d="M22.4 11.5843C22.4 5.61156 17.6165 0.761151 11.6874 0.687122C5.71146 0.612823 0.764426 5.46297 0.700638 11.4653C0.663384 14.9902 2.29212 18.1341 4.8447 20.152C6.11429 21.1556 6.87546 22.6725 6.87546 24.2953V26.0784H16.2247V24.2947C16.2247 22.6908 16.9539 21.1707 18.2136 20.1849C20.7614 18.1909 22.4 15.0798 22.4 11.5843Z" fill="#FFEB99"/>
<path id="Shape_4" d="M12.1112 0.687122C5.90474 0.612823 0.76691 5.46297 0.700662 11.4653C0.661971 14.9902 2.35352 18.1341 5.00455 20.152C6.32311 21.1556 7.11363 22.6725 7.11363 24.2953V26.0784H13.3C12.4354 15.65 9.19487 15.7751 8.26434 9.1884C7.64083 4.77436 12.1112 0.687122 12.1112 0.687122Z" fill="#FFDE55"/>
<path id="Shape_5" d="M16.8956 30.8823H6.90441C5.80187 30.8823 4.90002 29.9559 4.90002 28.8233C4.90002 27.6911 5.80187 26.7646 6.90441 26.7646H16.8956C17.9979 26.7646 18.9 27.6911 18.9 28.8233C18.9 29.9559 17.9979 30.8823 16.8956 30.8823Z" fill="#D8D7DA"/>
<path id="Shape_6" d="M6.8405 26.7646C5.77312 26.7646 4.90002 27.6911 4.90002 28.8236C4.90002 29.9559 5.77312 30.8823 6.8405 30.8823H11.6274C11.4031 29.7762 12.012 28.5776 13.1375 28.2308C14.3873 27.8456 15.4 27.2698 15.4 27.2698V26.7646L6.8405 26.7646Z" fill="#C6C5CA"/>
<path id="Shape_7" d="M16.8956 27.4509H6.90441C5.80187 27.4509 4.90002 26.5243 4.90002 25.3921C4.90002 24.2596 5.80187 23.3333 6.90441 23.3333H16.8956C17.9979 23.3333 18.9 24.2596 18.9 25.3921C18.9 26.5243 17.9979 27.4509 16.8956 27.4509Z" fill="#EAEAEA"/>
<path id="Shape_8" d="M8.52225 25.3921C8.52225 24.2599 9.41239 23.3333 10.5 23.3333H6.8778C5.7899 23.3333 4.90002 24.2599 4.90002 25.3921C4.90002 26.5243 5.7899 27.4509 6.8778 27.4509H10.5C9.41239 27.4509 8.52225 26.5243 8.52225 25.3921Z" fill="#D8D7DA"/>
<path id="Shape_9" d="M16.8 8.11161V9.04536C16.8 9.35593 16.9568 9.6079 17.15 9.6079C17.3434 9.6079 17.5 9.35593 17.5 9.04536V8.11161C17.5 7.80075 17.3434 7.54907 17.15 7.54907C16.9566 7.54907 16.8 7.80075 16.8 8.11161Z" fill="black"/>
<path id="Shape_10" d="M5.59998 8.11161V9.04536C5.59998 9.35593 5.75656 9.6079 5.94998 9.6079C6.1432 9.6079 6.29998 9.35593 6.29998 9.04536V8.11161C6.29998 7.80075 6.1432 7.54907 5.94998 7.54907C5.75656 7.54907 5.59998 7.80075 5.59998 8.11161Z" fill="black"/>
<path id="Shape_11" d="M12.4648 9.01624C11.72 9.51888 10.6798 9.51888 9.93523 9.01624C9.70923 8.86371 9.38373 8.89938 9.20871 9.09602C9.03341 9.29267 9.07441 9.57566 9.3004 9.72819C9.85972 10.1055 10.5299 10.2942 11.2 10.2942C11.8702 10.2942 12.5403 10.1055 13.0994 9.72819C13.3254 9.57566 13.3666 9.29267 13.1913 9.09602C13.0161 8.89938 12.6905 8.86371 12.4648 9.01624Z" fill="black"/>
<path id="Shape_12" fill-rule="evenodd" clip-rule="evenodd" d="M23.1 11.3228C23.1 14.8383 21.4755 18.0952 18.6435 20.2587C17.8187 20.8886 17.2415 21.757 16.9803 22.7423C18.1783 22.9391 19.094 23.9618 19.094 25.1912C19.094 25.8636 18.8197 26.4738 18.3758 26.9216C18.8293 27.379 19.094 27.9953 19.094 28.6495C19.094 30.0188 17.9576 31.1329 16.5609 31.1329H16.5344C15.9935 33.3666 13.9274 35 11.5501 35C9.16316 35 7.10583 33.3698 6.56624 31.1329H6.53927C5.14221 31.1329 4.00582 30.0188 4.00582 28.6495C4.00582 27.9942 4.27058 27.3785 4.7241 26.9213C4.28011 26.4738 4.00582 25.8633 4.00582 25.1912C4.00582 23.9632 4.91994 22.941 6.11599 22.7428C5.84905 21.7572 5.25825 20.8774 4.41195 20.2245C1.57015 18.0317 -0.0377336 14.7421 0.000672639 11.1992C0.0336312 8.18417 1.27108 5.3558 3.48529 3.23452C5.66601 1.14555 8.52523 0 11.5501 0C11.5988 0 11.6473 0.000267029 11.6961 0.00106812C13.8544 0.027237 15.9529 0.641403 17.7645 1.77761C18.0078 1.93008 18.0789 2.24705 17.9233 2.4855C17.7678 2.72423 17.4442 2.79392 17.201 2.64118C15.5538 1.60858 13.6458 1.05022 11.683 1.02646C8.88178 0.993614 6.23175 2.03716 4.2161 3.96805C2.20209 5.8976 1.07632 8.46962 1.04663 11.2104C1.01149 14.4324 2.47393 17.4242 5.05859 19.4189C6.14949 20.2605 6.89119 21.4157 7.18346 22.7079H9.85229C9.65427 21.0032 9.23098 19.0562 8.3716 17.269C8.29861 17.1173 8.22588 16.974 8.1537 16.838L7.48554 17.2586C7.12681 17.4583 6.86259 17.2565 6.7629 17.104C6.60682 16.8655 6.67737 16.5483 6.92061 16.3956L7.62772 15.9507C7.19218 15.2941 6.86886 14.9857 6.86395 14.9811C6.65613 14.7857 6.64795 14.4615 6.84652 14.2569C7.04509 14.0527 7.37413 14.043 7.5836 14.2369C7.62881 14.2788 8.01342 14.6447 8.51134 15.3947C8.51134 15.3947 9.18849 14.7101 10.1582 15.3427L11.3324 16.0813C11.4643 16.1643 11.6348 16.1643 11.7669 16.0813L12.9414 15.3424C13.8588 14.7437 14.5885 15.395 14.5885 15.395C15.0864 14.6447 15.471 14.2788 15.5163 14.2369C15.726 14.0428 16.0572 14.0519 16.2555 14.2577C16.4533 14.4633 16.4443 14.7867 16.2356 14.9814C16.2247 14.9915 15.9036 15.3005 15.4721 15.9507L16.1792 16.3956C16.4225 16.5483 16.493 16.8655 16.337 17.1037C16.1812 17.3422 15.8576 17.4113 15.6146 17.2586L14.9462 16.838C14.874 16.974 14.8012 17.1173 14.7283 17.269C14.1791 18.4106 13.5368 20.2026 13.2459 22.7076H15.9139C16.2013 21.4122 16.9302 20.2675 18.0007 19.4498C20.5766 17.4821 22.054 14.52 22.054 11.3228C22.054 8.53477 20.9359 5.92403 18.9055 3.97152C18.6993 3.77312 18.6961 3.44868 18.8985 3.24654C19.1006 3.0444 19.4318 3.04119 19.638 3.23959C21.8705 5.38651 23.1 8.25706 23.1 11.3228ZM9.59352 16.2057C9.2702 15.9867 9.04113 16.2799 9.04113 16.2799C9.77766 17.6423 10.5817 19.7364 10.9078 22.7076H12.1923C12.5184 19.7364 13.3222 17.6423 14.059 16.2799C14.059 16.2799 13.773 16.0223 13.5063 16.2054L12.3318 16.9443C11.8565 17.2431 11.2425 17.2431 10.7678 16.944L9.59352 16.2057ZM11.5501 33.9746C9.73544 33.9746 8.16105 32.7906 7.64924 31.1329H15.4506C14.9374 32.7885 13.3571 33.9746 11.5501 33.9746ZM16.5609 26.6495C17.381 26.6495 18.0481 25.9953 18.0481 25.1912C18.0481 24.3872 17.381 23.733 16.5609 23.733H6.53927C5.71912 23.733 5.05178 24.3872 5.05178 25.1912C5.05178 25.9953 5.71912 26.6495 6.53927 26.6495H9.52434C9.81334 26.6495 10.0473 26.8789 10.0473 27.1622C10.0473 27.4452 9.81334 27.6749 9.52434 27.6749H6.53927C6.21541 27.6749 5.90625 27.6145 5.62133 27.5053C5.26533 27.7803 5.05178 28.1993 5.05178 28.6495C5.05178 29.4535 5.71912 30.1075 6.53927 30.1075H16.5609C17.381 30.1075 18.0481 29.4535 18.0481 28.6495C18.0481 28.2001 17.8345 27.7803 17.4785 27.5053C17.1939 27.6145 16.8844 27.6749 16.5609 27.6749H11.7263C11.4376 27.6749 11.2033 27.4452 11.2033 27.1622C11.2033 26.8789 11.4376 26.6495 11.7263 26.6495H16.5609Z" fill="black"/>
</g>
</svg>
