<svg width="32" height="35" viewBox="0 0 32 35" fill="none" xmlns="http://www.w3.org/2000/svg">
<g id="Icon">
<path id="Shape" d="M27.496 6.33286C22.6855 5.7243 19.4915 3.31783 17.6413 1.37386C16.5486 0.225639 14.7115 0.225639 13.6188 1.37386C11.7685 3.31783 8.5746 5.7243 3.76434 6.33286C1.75067 6.5876 0.329013 8.43891 0.574413 10.4536C1.19098 15.5096 2.68688 23.9106 5.5529 27.042C8.10623 29.8322 11.318 32.2966 13.4201 33.7853C14.7443 34.7228 16.516 34.7228 17.8402 33.7853C19.9423 32.2966 23.1541 29.8322 25.7074 27.042C28.5735 23.9103 30.0693 15.5096 30.6859 10.4536C30.9313 8.43891 29.5094 6.5876 27.496 6.33286Z" fill="#CCF8FF"/>
<path id="Shape_2" d="M19.3703 2.95094C18.6993 2.42062 18.1243 1.88122 17.6413 1.37386C16.5486 0.225639 14.7114 0.225639 13.6188 1.37386C11.7685 3.31783 8.57459 5.72456 3.76433 6.33286C1.75067 6.5876 0.328737 8.43891 0.574403 10.4536C1.19071 15.5096 2.68687 23.9106 5.55289 27.042C7.17402 28.8135 9.06031 30.4536 10.7597 31.7959C9.14015 26.764 8.81545 21.6795 8.88407 17.9299C8.93988 14.8842 10.5485 12.0833 13.1333 10.4715C16.6765 8.26187 18.5914 4.71519 19.3703 2.95094Z" fill="#ABEBF4"/>
<path id="Shape_3" d="M16.493 30.244C15.9827 30.632 15.2772 30.632 14.767 30.244C13.2078 29.0589 9.92412 26.4906 8.20632 24.6137C7.81325 24.1838 6.78172 22.7343 5.70213 18.5674C5.12855 16.3526 4.64923 13.1563 4.40009 11.3282C4.29515 10.557 4.80731 9.83311 5.57128 9.68544C9.66537 8.8945 12.7028 7.0261 14.8086 5.2039C15.2791 4.79694 15.9811 4.79694 16.4514 5.2039C18.5574 7.0261 21.5949 8.8945 25.6887 9.68544C26.4529 9.83311 26.9651 10.557 26.8599 11.3282C26.611 13.1563 26.1317 16.3529 25.5579 18.5674C24.4783 22.7343 23.447 24.1838 23.0537 24.6137C21.3359 26.4906 18.0522 29.0589 16.493 30.244Z" fill="#B2E59C"/>
<path id="Shape_4" d="M15.6297 22.0632C15.3291 22.0632 15.0276 21.9631 14.7787 21.7607L10.7602 18.4909C10.1823 18.0207 10.0953 17.171 10.5653 16.5931C11.0358 16.0153 11.8852 15.928 12.463 16.3982L15.5413 18.9032L20.0464 14.4401C20.5756 13.9159 21.4299 13.9199 21.954 14.4492C22.4785 14.9784 22.4745 15.8324 21.9452 16.3568L16.5793 21.6725C16.3179 21.9316 15.9745 22.0632 15.6297 22.0632Z" fill="#FFEB99"/>
<path id="Shape_5" d="M17.5913 6.12034C17.1849 5.81726 16.8046 5.50964 16.4514 5.2039C15.9811 4.79694 15.2791 4.79694 14.8086 5.2039C12.7028 7.0261 9.66537 8.8945 5.57128 9.68544C4.80731 9.83311 4.29515 10.557 4.40009 11.3282C4.64923 13.1563 5.12828 16.3529 5.70213 18.5674C6.78172 22.7343 7.81299 24.1838 8.20632 24.6137C8.54331 24.9819 8.94172 25.3777 9.37457 25.7835C8.94279 22.8868 8.84318 20.1698 8.88404 17.93C8.93985 14.8842 10.5484 12.0831 13.1333 10.4716C15.0869 9.25339 16.5451 7.62905 17.5913 6.12034Z" fill="#9AD880"/>
<path id="Shape_6" d="M27.5601 5.82417C26.4767 5.68718 25.4179 5.44685 24.4137 5.11013C24.145 5.02014 23.8545 5.16487 23.7645 5.43324C23.6745 5.70187 23.8192 5.99239 24.0876 6.08238C25.156 6.44073 26.281 6.69601 27.4316 6.84155C29.1572 7.05997 30.3887 8.65253 30.1767 10.3914C29.8987 12.6719 29.3897 16.0757 28.5438 19.3409C27.6223 22.8975 26.5408 25.372 25.3293 26.6959C22.8414 29.4146 19.7222 31.8242 17.5438 33.3669C16.3991 34.1776 14.861 34.1776 13.7165 33.3669C11.5381 31.8242 8.4189 29.4146 5.93099 26.6959C4.71948 25.372 3.63774 22.8975 2.7165 19.3409C1.87055 16.0757 1.36159 12.6719 1.08335 10.3914C0.871593 8.65253 2.10286 7.05997 3.82867 6.84155C8.80315 6.21243 12.1002 3.71304 13.9902 1.72714C14.4209 1.2748 15.0033 1.02539 15.63 1.02539C16.2567 1.02539 16.8391 1.2748 17.2701 1.72714C18.6317 3.15788 20.2055 4.32453 21.9479 5.19478C22.2011 5.32135 22.5092 5.21854 22.6358 4.96513C22.7621 4.71172 22.6593 4.40384 22.4061 4.27753C20.7703 3.46043 19.2923 2.36454 18.0127 1.02032C17.3865 0.362358 16.5403 0 15.63 0C14.7197 0 13.8735 0.362358 13.2473 1.02032C11.4721 2.88551 8.37484 5.23296 3.69996 5.82417C1.4158 6.11309 -0.21468 8.21781 0.0654333 10.5156C0.542881 14.4318 1.99659 23.9156 5.1745 27.3883C7.72355 30.1737 10.9044 32.632 13.1237 34.2037C13.8732 34.7346 14.7515 35 15.63 35C16.5083 34.9997 17.3868 34.7346 18.1363 34.2037C20.3556 32.632 23.5365 30.1737 26.0855 27.3883C29.2637 23.9156 30.7171 14.4318 31.1946 10.5156C31.4747 8.21781 29.8442 6.11309 27.5601 5.82417Z" fill="black"/>
<path id="Shape_7" fill-rule="evenodd" clip-rule="evenodd" d="M5.47412 9.18209C8.85177 8.52947 11.8796 7.06054 14.4733 4.81616C15.1328 4.24552 16.1272 4.24552 16.7868 4.81616C19.3805 7.06054 22.4083 8.52947 25.7859 9.18209C26.8151 9.38102 27.5101 10.3541 27.3681 11.3976C27.1288 13.152 26.6404 16.4333 26.054 18.6961C24.9857 22.8206 23.9525 24.391 23.4318 24.9597C21.7202 26.83 18.5441 29.3291 16.8034 30.6523C16.4578 30.9148 16.0439 31.0459 15.63 31.0459C15.2161 31.0459 14.8022 30.9148 14.4567 30.6523C12.7159 29.3291 9.53991 26.83 7.82825 24.9597C7.30754 24.391 6.27441 22.8206 5.20603 18.6961C4.6199 16.4338 4.13124 13.1523 3.89225 11.3976C3.75019 10.3541 4.445 9.38102 5.47412 9.18209ZM25.0615 18.4389C25.6345 16.2271 26.116 12.9913 26.352 11.259C26.4207 10.7546 26.0866 10.2846 25.5915 10.1888C22.035 9.50172 18.8469 7.95509 16.1158 5.59162C15.9774 5.47172 15.8036 5.41164 15.63 5.41164C15.4565 5.41164 15.2826 5.47172 15.1443 5.59162C12.4131 7.95509 9.22508 9.50172 5.66852 10.1888C5.17345 10.2846 4.8394 10.7546 4.90829 11.259C5.14434 12.9915 5.6258 16.2276 6.19857 18.4389C7.27871 22.6083 8.29795 23.9541 8.58474 24.2676C10.3039 26.1459 13.6978 28.7873 15.0773 29.8357C15.4028 30.0832 15.8573 30.0832 16.1828 29.8357C17.5623 28.7873 20.9562 26.1462 22.6756 24.2676C22.9621 23.9541 23.9814 22.6083 25.0615 18.4389Z" fill="black"/>
<path id="Shape_8" d="M12.7867 16.0007C12.4011 15.6867 11.0996 15.0383 10.1677 16.2696C9.23599 17.5006 10.051 18.5746 10.4366 18.8886L11.9234 20.0983C12.1429 20.2769 12.466 20.2441 12.6446 20.0243C12.8233 19.8045 12.7901 19.4817 12.5706 19.3028L11.0838 18.0931C10.9108 17.9521 10.5327 17.4931 10.9631 16.9166C11.3936 16.3404 11.9664 16.6549 12.1394 16.7959L15.218 19.3009C15.4212 19.4662 15.7162 19.4518 15.9024 19.2673L20.4074 14.8044C20.7351 14.4797 21.2654 14.4824 21.5901 14.81C21.9145 15.1374 21.9118 15.668 21.5845 15.9924L16.2185 21.3084C15.7937 21.7181 15.3258 21.5474 15.1023 21.3629L14.2505 20.67C14.0308 20.4913 13.7079 20.5244 13.529 20.7439C13.3504 20.9634 13.3835 21.2865 13.6032 21.4652L14.4551 22.1584C14.7859 22.4276 15.203 22.576 15.6297 22.576C16.124 22.576 16.5894 22.3846 16.9403 22.0369L22.306 16.7211C23.0352 15.9986 23.0408 14.8175 22.3183 14.0882C21.596 13.3593 20.4149 13.3536 19.6856 14.076L15.5077 18.2149L12.7867 16.0007Z" fill="black"/>
</g>
</svg>
