<svg width="31" height="30" viewBox="0 0 31 30" fill="none" xmlns="http://www.w3.org/2000/svg">
<g id="Icon">
<path id="Shape" d="M19.5049 25.3561C19.5049 27.6455 17.6491 29.5013 15.36 29.5013C13.0709 29.5013 11.2151 27.6455 11.2151 25.3561C11.2151 23.067 13.0709 21.2112 15.36 21.2112C17.6491 21.2112 19.5049 23.067 19.5049 25.3561Z" fill="#FFDE55"/>
<path id="Shape_2" d="M15.36 21.2112C13.0709 21.2112 11.2151 23.067 11.2151 25.3561C11.2151 26.9395 12.1043 28.3139 13.4095 29.0119C15.0166 27.2119 17.7244 26.9796 19.1677 26.9967C19.3847 26.4935 19.5052 25.939 19.5052 25.3561C19.5049 23.067 17.6491 21.2112 15.36 21.2112V21.2112Z" fill="#FFCD00"/>
<path id="Shape_3" d="M24.5217 12.0494C24.5217 12.0494 24.6145 0.47998 15.36 0.47998C6.10548 0.47998 6.19829 12.0494 6.19829 12.0494C6.19829 12.0494 6.26954 19.1196 2.62735 23.4762H28.0927C24.4505 19.1196 24.5217 12.0494 24.5217 12.0494Z" fill="#FFDE55"/>
<path id="Shape_4" d="M10.9732 23.4761C12.4662 19.3474 12.923 15.1427 13.0479 12.4982C13.1189 10.9992 13.5497 9.54207 14.2847 8.23355C15.8527 5.44191 14.7349 2.14707 14.0149 0.567383C6.11485 1.63098 6.19829 12.0494 6.19829 12.0494C6.19829 12.0494 6.26954 19.1196 2.62735 23.4761H10.9732Z" fill="#FFCD00"/>
<path id="Shape_5" d="M27.8248 26.1017H2.89525C1.5504 26.1017 0.450012 25.0013 0.450012 23.6564C0.450012 22.3116 1.5504 21.2112 2.89525 21.2112H27.8248C29.1696 21.2112 30.27 22.3116 30.27 23.6564C30.27 25.0013 29.1696 26.1017 27.8248 26.1017Z" fill="#FFEB99"/>
<path id="Shape_6" d="M7.55298 23.6564C7.55298 22.3116 8.65337 21.2112 9.99822 21.2112H2.89525C1.5504 21.2112 0.450012 22.3116 0.450012 23.6564C0.450012 25.0013 1.5504 26.1017 2.89525 26.1017H9.99822C8.65337 26.1017 7.55298 25.0013 7.55298 23.6564Z" fill="#FFDE55"/>
<path id="Shape_7" d="M11.0953 5.05113C11.0953 7.00746 9.50929 8.59348 7.55296 8.59348C5.59664 8.59348 4.01062 7.00746 4.01062 5.05113C4.01062 3.0948 5.59664 1.50879 7.55296 1.50879C9.50929 1.50879 11.0953 3.0948 11.0953 5.05113Z" fill="#FF929F"/>
<path id="Shape_8" d="M8.2486 6.51331V3.58878C8.2486 3.41651 8.15016 3.25948 7.99547 3.18425C7.84055 3.10901 7.65633 3.12847 7.52063 3.23487L6.06938 4.3744C5.87391 4.52792 5.83993 4.81057 5.99344 5.00604C6.14696 5.20151 6.42985 5.23573 6.62532 5.08222L7.3486 4.51432V6.51331C7.3486 6.76175 7.54993 6.96331 7.7986 6.96331C8.04704 6.96331 8.2486 6.76175 8.2486 6.51331Z" fill="black"/>
<path id="Shape_9" d="M20.6494 15.8307V15.0838C20.6494 14.8351 20.448 14.6338 20.1994 14.6338C19.9509 14.6338 19.7494 14.8351 19.7494 15.0838V15.8307C19.7494 16.0792 19.9509 16.2807 20.1994 16.2807C20.448 16.2807 20.6494 16.0792 20.6494 15.8307Z" fill="black"/>
<path id="Shape_10" d="M10.0706 15.0838V15.8307C10.0706 16.0792 10.2719 16.2807 10.5206 16.2807C10.7691 16.2807 10.9706 16.0792 10.9706 15.8307V15.0838C10.9706 14.8351 10.7691 14.6338 10.5206 14.6338C10.2719 14.6338 10.0706 14.8351 10.0706 15.0838Z" fill="black"/>
<path id="Shape_11" d="M15.36 16.7518C15.9424 16.7518 16.5249 16.5633 17.0109 16.1864C17.2071 16.0341 17.243 15.7514 17.0906 15.555C16.9383 15.3586 16.6556 15.323 16.4592 15.4754C15.8121 15.9772 14.9081 15.9772 14.2608 15.4754C14.0644 15.323 13.7817 15.3586 13.6294 15.555C13.477 15.7514 13.5129 16.0341 13.7093 16.1864C14.1952 16.5633 14.7776 16.7518 15.36 16.7518Z" fill="black"/>
<path id="Shape_12" fill-rule="evenodd" clip-rule="evenodd" d="M27.8248 20.7612H26.8896C24.9511 16.7857 24.9712 12.1017 24.9717 12.0532C24.9722 11.9909 24.9792 10.5057 24.5672 8.5819C23.8725 5.33886 22.5389 3.46081 21.5426 2.45628C19.9455 0.846357 17.8652 0.0300293 15.36 0.0300293C13.8982 0.0300293 12.5677 0.311514 11.4054 0.866514C11.1811 0.973623 11.0862 1.24222 11.1933 1.46651C11.3004 1.69081 11.569 1.78573 11.7933 1.67862C12.8334 1.18198 14.0334 0.930029 15.36 0.930029C17.6152 0.930029 19.4791 1.65589 20.9009 3.08722C24.075 6.28362 24.0722 11.9888 24.0717 12.0448C24.0698 12.2424 24.048 16.695 25.8949 20.7612H23.847C23.5983 20.7612 23.397 20.9628 23.397 21.2112C23.397 21.4596 23.5983 21.6612 23.847 21.6612H27.8248C28.9249 21.6612 29.82 22.5563 29.82 23.6564C29.82 24.7566 28.9249 25.6517 27.8248 25.6517H2.89523C1.79508 25.6517 0.9 24.7566 0.9 23.6564C0.9 22.5563 1.79508 21.6612 2.89523 21.6612H21.8536C22.102 21.6612 22.3036 21.4596 22.3036 21.2112C22.3036 20.9628 22.102 20.7612 21.8536 20.7612H4.82508C6.67195 16.6953 6.65016 12.2424 6.64828 12.046C6.64805 12.0317 6.64219 10.7178 6.98484 9.00237C9.61922 9.27519 11.5453 7.25253 11.5453 5.05104C11.5453 2.84979 9.75422 1.0587 7.55297 1.0587C5.35148 1.0587 3.56063 2.84956 3.56063 5.05104C3.56063 6.74487 4.62117 8.19448 6.11297 8.77362C5.74172 10.6008 5.74758 11.9902 5.74828 12.0542C5.74875 12.1017 5.77219 16.7796 3.83016 20.7612H2.89523C1.29867 20.7612 0 22.0599 0 23.6564C0 25.253 1.29867 26.5517 2.89523 26.5517H10.923C11.4572 28.5357 13.2841 29.9513 15.36 29.9513C17.4574 29.9513 19.2649 28.5432 19.7977 26.5517H27.8248C29.4211 26.5517 30.72 25.253 30.72 23.6564C30.72 22.0599 29.4211 20.7612 27.8248 20.7612ZM4.46063 5.05104C4.46063 3.34597 5.84789 1.9587 7.55297 1.9587C9.25805 1.9587 10.6453 3.34597 10.6453 5.05104C10.6453 6.75612 9.25805 8.14339 7.55297 8.14339C5.84789 8.14339 4.46063 6.75612 4.46063 5.05104ZM11.8634 26.5517C12.3675 28.0231 13.7733 29.0513 15.36 29.0513C16.9634 29.0513 18.3555 28.028 18.8571 26.5517H11.8634Z" fill="black"/>
</g>
</svg>
