<svg width="36" height="25" viewBox="0 0 36 25" fill="none" xmlns="http://www.w3.org/2000/svg">
<g id="Icon">
<path id="Shape" d="M6.58846 7.59473H2.59051C1.44789 7.59473 0.521469 8.52115 0.521469 9.66377V14.6946C0.521469 15.8372 1.44789 16.7637 2.59051 16.7637H6.58846L8.29682 12.1579L6.58846 7.59473Z" fill="#FF929F"/>
<path id="Shape_2" d="M29.0049 21.7681C28.4617 21.242 28.5044 20.3536 29.0522 19.8322C31.1717 17.8136 32.3388 15.0958 32.3388 12.179C32.3388 9.26234 31.1715 6.54445 29.0519 4.52619C28.5044 4.00445 28.4832 3.13778 29.0046 2.58996C29.5261 2.04242 30.3928 2.02123 30.9406 2.5427C33.6083 5.08324 35.0776 8.50539 35.0776 12.1793C35.0776 15.8527 33.6085 19.2751 30.9409 21.8154C30.6758 22.0677 29.8067 22.5446 29.0049 21.7681Z" fill="#ABEBF4"/>
<path id="Shape_3" d="M24.2476 18.3043C23.8386 17.6682 23.9887 16.8266 24.6153 16.4031C26.0217 15.4525 26.8612 13.8735 26.8612 12.179C26.8612 10.4842 26.0217 8.90509 24.6148 7.9545C23.9879 7.53134 23.8233 6.67988 24.2465 6.0533C24.6699 5.42672 25.5211 5.26186 26.148 5.68528C28.3094 7.14567 29.6 9.57323 29.6 12.179C29.6 14.7844 28.3099 17.2117 26.1488 18.6724C25.9138 18.831 24.7911 19.1498 24.2476 18.3043Z" fill="#CCF8FF"/>
<path id="Shape_4" d="M6.58846 7.5948V16.7637L17.4565 23.4068C19.3805 24.5828 21.8494 23.1982 21.8494 20.9434V3.41516C21.8494 1.16034 19.3805 -0.224275 17.4565 0.95175L6.58846 7.5948Z" fill="#EAEAEA"/>
<path id="Shape_5" d="M3.82846 12.1791C5.26387 12.1791 6.68596 11.9324 8.03309 11.4536L6.58846 7.59473H2.59051C1.44789 7.59473 0.521469 8.52115 0.521469 9.66377V12.1791H3.82846Z" fill="#FF737D"/>
<path id="Shape_6" d="M9.09369 11.0216L21.8494 5.12732V3.41516C21.8494 1.16034 19.3805 -0.224275 17.4565 0.95175L6.58819 7.5948V11.8711C7.44862 11.6772 8.28867 11.3934 9.09369 11.0216Z" fill="#D8D7DA"/>
<path id="Shape_7" fill-rule="evenodd" clip-rule="evenodd" d="M17.1846 0.506812C18.2512 -0.145298 19.5391 -0.16947 20.6296 0.442172C21.7201 1.05354 22.3708 2.16493 22.3711 3.4151V20.943C22.3711 22.1932 21.7201 23.3049 20.6296 23.9162C20.1035 24.2112 18.6445 24.6965 17.1846 23.8516L6.44152 17.2851H2.59052C1.16217 17.2851 0 16.123 0 14.6946V9.66379C0 8.23545 1.16217 7.07327 2.59052 7.07327H6.44152L17.1846 0.506812ZM20.1193 23.0067C20.8762 22.5821 21.3279 21.8108 21.3279 20.943H21.3282V3.4151C21.3282 2.54761 20.8762 1.77627 20.1195 1.35176C19.3626 0.927248 18.4688 0.944088 17.7284 1.39657L7.10993 7.88726V14.4909C7.10993 14.7791 6.87635 15.0124 6.58846 15.0124C6.30029 15.0124 6.06699 14.7791 6.06699 14.4909V8.11621H2.59052C1.73715 8.11621 1.04294 8.81042 1.04294 9.66379V14.6946C1.04294 15.5477 1.73715 16.2422 2.59052 16.2422H6.58846V16.2427C6.68135 16.2425 6.77532 16.2666 6.86033 16.3185L17.7284 22.9616C18.469 23.4143 19.3626 23.4309 20.1193 23.0067Z" fill="black"/>
<path id="Shape_8" d="M33.4333 4.7435C33.278 4.50096 32.9553 4.43062 32.7128 4.58624C32.4705 4.74187 32.4002 5.06426 32.5558 5.3068C33.8644 7.34542 34.5561 9.72192 34.5561 12.1791C34.5561 15.7088 33.1444 18.9968 30.581 21.4379C30.5753 21.4433 29.9734 22.0036 29.3678 21.3936C28.9319 20.955 29.2401 20.3732 29.4118 20.2097C31.6356 18.0921 32.8603 15.24 32.8603 12.1791C32.8603 9.11842 31.6356 6.26636 29.4115 4.14842C29.2475 3.99225 28.9004 3.46209 29.3824 2.94958C29.8643 2.43708 30.417 2.76408 30.581 2.92025C30.8363 3.1636 31.084 3.41918 31.3176 3.68019C31.5096 3.89475 31.8393 3.91322 32.0539 3.7212C32.2685 3.52918 32.2869 3.19946 32.0949 2.98489C31.8431 2.70324 31.5756 2.4273 31.3002 2.16521C30.9344 1.81674 29.672 1.07039 28.6271 2.23039C27.5969 3.37382 28.3267 4.55528 28.6923 4.90374C30.7076 6.82286 31.8173 9.40659 31.8173 12.1791C31.8173 14.9516 30.6734 17.5 28.6923 19.4544C27.4717 20.659 28.2884 21.8002 28.6421 22.1427C29.0725 22.5599 30.182 23.2644 31.3005 22.1929C34.0648 19.5451 35.5991 15.9969 35.5991 12.1791C35.5991 9.52175 34.8503 6.95052 33.4333 4.7435Z" fill="black"/>
<path id="Shape_9" fill-rule="evenodd" clip-rule="evenodd" d="M23.8147 5.76136C24.3842 4.88817 25.576 4.66953 26.4399 5.2532C28.7453 6.81082 30.1215 9.39998 30.1217 12.179C30.1217 14.958 28.7455 17.5469 26.4407 19.1042C26.2392 19.2406 24.8489 19.9826 23.8089 18.5866C23.2389 17.7001 23.4648 16.5512 24.3234 15.9711C25.586 15.1177 26.34 13.7002 26.34 12.179C26.34 10.6578 25.5858 9.24001 24.3228 8.38664C23.9043 8.10391 22.8961 7.16933 23.8147 5.76136ZM24.6862 18.0224C25.0151 18.5344 25.7628 18.2919 25.8609 18.2376C27.8759 16.8739 29.0785 14.6095 29.0788 12.179C29.0788 9.74681 27.874 7.48086 25.856 6.11743C25.4687 5.85588 24.9407 5.958 24.6786 6.34557C24.2813 6.93331 24.7191 7.39585 24.9068 7.52268C26.457 8.56997 27.3827 10.3107 27.3827 12.179C27.3827 14.047 26.4573 15.7877 24.9073 16.8353C24.5224 17.0952 24.4252 17.6167 24.6862 18.0224Z" fill="black"/>
</g>
</svg>
