<svg width="38" height="35" viewBox="0 0 38 35" fill="none" xmlns="http://www.w3.org/2000/svg">
<g id="Icon">
<path id="Shape" d="M11.9781 16.8135L5.40913 23.3822C4.58148 24.2101 4.58148 25.5649 5.40913 26.3928C6.23707 27.2205 7.59183 27.2205 8.41977 26.3928L9.08274 25.7299C9.71097 25.1016 10.7389 25.1016 11.3674 25.7299C11.9956 26.3581 11.9956 27.3863 11.3674 28.0145L8.62626 30.7557C7.79832 31.5833 7.79832 32.9381 8.62626 33.766C9.4542 34.594 10.809 34.594 11.6366 33.766L20.2838 25.1191L11.9781 16.8135Z" fill="#CCF8FF"/>
<path id="Shape_2" d="M9.62906 19.1623C9.81549 20.1224 10.2878 21.3074 11.2886 22.6975C13.112 25.2299 14.9472 27.1106 16.1105 29.2922L20.2838 25.1189L11.9781 16.8135L9.62906 19.1623Z" fill="#ABEBF4"/>
<path id="Shape_3" d="M26.1079 24.9978C24.9091 26.1966 19.2389 30.1976 18.2096 29.1683C17.1802 28.1392 21.1812 22.4691 22.3804 21.2702C23.5792 20.0714 25.0983 20.2211 26.1277 21.2505C27.157 22.2798 27.3067 23.799 26.1079 24.9978Z" fill="#FF929F"/>
<path id="Shape_4" d="M15.8269 14.7168C14.628 15.9159 8.95789 19.9169 7.92882 18.8876C6.89948 17.8582 10.9005 12.1881 12.0993 10.9892C13.2981 9.7904 14.8173 9.94011 15.8466 10.9695C16.876 11.9988 17.026 13.518 15.8269 14.7168Z" fill="#FF929F"/>
<path id="Shape_5" d="M36.4214 4.16636C36.2098 2.33309 34.7641 0.88737 32.9308 0.675795C29.3634 0.263944 23.2885 0.501506 19.0943 5.68241C15.6608 9.92408 13.5719 13.0051 12.3843 14.9253C11.5485 16.277 11.753 18.0258 12.8767 19.1495L17.9477 24.2205C19.0717 25.3445 20.8202 25.549 22.1719 24.7132C24.0924 23.5253 27.1734 21.4364 31.4148 18.0029C36.5957 13.8087 36.8335 7.73376 36.4214 4.16636Z" fill="#EAEAEA"/>
<path id="Shape_6" d="M36.5293 5.45134C36.5056 4.99571 36.4674 4.56522 36.4214 4.16636C36.2098 2.33337 34.7641 0.88765 32.9308 0.675793C29.3634 0.263942 23.2885 0.501504 19.0943 5.68269C15.6608 9.92408 13.5719 13.0051 12.3843 14.9256C11.5485 16.2773 11.753 18.0258 12.8767 19.1498L16.2774 22.5502C17.9805 18.4953 21.2903 14.3553 23.6046 11.7503C25.006 10.1735 26.9132 9.14586 28.9951 8.80604C32.7927 8.18629 35.226 6.58351 36.5293 5.45134Z" fill="#D8D7DA"/>
<path id="Shape_7" d="M36.4214 4.16616C36.2099 2.33289 34.7641 0.88717 32.9309 0.675595C31.6244 0.524753 29.9807 0.460913 28.2169 0.695369L36.4017 8.88041C36.6361 7.11635 36.5723 5.4729 36.4214 4.16616Z" fill="#FF929F"/>
<path id="Shape_8" d="M36.4214 4.16616C36.2099 2.33289 34.7641 0.88717 32.9309 0.675595C31.6244 0.524753 29.9807 0.460913 28.2169 0.695369L34.4435 6.92229C35.3243 6.41835 36.0149 5.89774 36.5293 5.45115C36.5056 4.99551 36.4675 4.56502 36.4214 4.16616Z" fill="#FF737D"/>
<path id="Shape_9" d="M20.9674 19.8572C19.7686 21.0563 14.0984 25.0573 13.0694 24.0279C12.04 22.9986 16.041 17.3284 17.2398 16.1296C18.4387 14.9308 19.9578 15.0805 20.9872 16.1098C22.0165 17.1392 22.1662 18.6583 20.9674 19.8572Z" fill="#FF929F"/>
<path id="Shape_10" d="M31.0292 10.7002C31.0292 13.2586 28.9553 15.3323 26.3972 15.3323C23.8388 15.3323 21.7648 13.2586 21.7648 10.7002C21.7648 8.14182 23.8388 6.06787 26.3972 6.06787C28.9553 6.06787 31.0292 8.14182 31.0292 10.7002Z" fill="#D8D7DA"/>
<path id="Shape_11" d="M23.6046 11.7502C25.006 10.1731 26.9133 9.14546 28.9951 8.80592C29.5135 8.72118 30.0072 8.61807 30.4753 8.50056C30.2668 8.11442 29.999 7.75087 29.6725 7.42461C27.8635 5.61563 24.9306 5.61563 23.1216 7.42461C21.5812 8.96495 21.3527 11.3202 22.4354 13.1027C22.8431 12.6179 23.2368 12.164 23.6046 11.7502Z" fill="#C6C5CA"/>
<path id="Shape_12" d="M24.6557 12.4415C23.6955 11.4814 23.6955 9.91901 24.6557 8.95887C25.6158 7.99873 27.1782 7.99873 28.1383 8.95887C29.0988 9.91901 29.0988 11.4814 28.1383 12.4415C27.1782 13.4017 25.6158 13.4017 24.6557 12.4415Z" fill="#CCF8FF"/>
<path id="Shape_13" d="M25.9274 10.5472C26.6988 9.7758 27.859 9.62495 28.7829 10.0927C28.6779 9.67721 28.4629 9.28344 28.1383 8.95887C27.1782 7.99873 25.6158 7.99873 24.6557 8.95887C23.6955 9.91901 23.6955 11.4814 24.6557 12.4415C24.8447 12.6305 25.0571 12.7825 25.2836 12.8969C25.0777 12.0831 25.2918 11.1828 25.9274 10.5472Z" fill="#ABEBF4"/>
<path id="Shape_14" d="M4.87723 29.0613C4.87723 30.2387 3.92274 31.1931 2.74538 31.1931C1.56801 31.1931 0.613525 30.2387 0.613525 29.0613C0.613525 27.8839 1.56801 26.9294 2.74538 26.9294C3.92274 26.9294 4.87723 27.8839 4.87723 29.0613Z" fill="#ABEBF4"/>
<path id="Shape_15" fill-rule="evenodd" clip-rule="evenodd" d="M22.738 7.04092C24.7557 5.02347 28.0386 5.02347 30.0561 7.04092C32.0738 9.05865 32.0738 12.3413 30.0561 14.359C28.0384 16.3768 24.7557 16.3768 22.738 14.359C20.7205 12.3416 20.7205 9.05865 22.738 7.04092ZM23.5052 7.80813C21.9106 9.40271 21.9106 11.9975 23.5052 13.5921C25.0998 15.1867 27.6943 15.1867 29.2892 13.5921C30.8838 11.9973 30.8838 9.40271 29.2892 7.80813C27.6943 6.21354 25.0998 6.21354 23.5052 7.80813Z" fill="black"/>
<path id="Shape_16" fill-rule="evenodd" clip-rule="evenodd" d="M24.2724 8.57521C25.4438 7.4035 27.3502 7.40378 28.522 8.57521C29.6937 9.74693 29.6937 11.6534 28.522 12.8251C27.3502 13.9968 25.4438 13.9968 24.2724 12.8251C23.1007 11.6534 23.1007 9.74693 24.2724 8.57521ZM25.0393 9.34242C24.2904 10.091 24.2904 11.3093 25.0393 12.0579C25.7881 12.8067 27.0062 12.8067 27.755 12.0579C28.5036 11.3093 28.5036 10.091 27.755 9.34242C27.0062 8.59357 25.7881 8.59357 25.0393 9.34242Z" fill="black"/>
<path id="Shape_17" fill-rule="evenodd" clip-rule="evenodd" d="M27.2387 21.9163C28.5584 20.9482 30.0648 19.7934 31.756 18.4243C34.1387 16.4955 35.7483 13.9933 36.54 10.9875C37.2383 8.33675 37.1539 5.7809 36.9604 4.10383C36.7186 2.01011 35.0873 0.378811 32.9933 0.136728C31.3162 -0.0567684 28.7606 -0.141229 26.1096 0.557336C23.1038 1.34884 20.6016 2.95839 18.6728 5.34108C17.3039 7.03199 16.1495 8.53843 15.1814 9.85788C14.0103 9.3353 12.7199 9.60168 11.7157 10.6059C11.0835 11.2381 9.75616 12.9917 8.71383 14.7221C6.78733 17.9206 7.12433 18.8502 7.54522 19.2711C7.71668 19.4426 7.97232 19.5991 8.42796 19.5966L5.02581 22.9987C3.98432 24.0402 3.98432 25.7348 5.02581 26.7763C6.0673 27.8178 7.76188 27.8178 8.80337 26.7763L9.46606 26.1136C9.88441 25.6952 10.5655 25.6952 10.9838 26.1136C11.4022 26.5319 11.4022 27.2127 10.9838 27.631L8.24265 30.3722C7.20116 31.4137 7.20116 33.1083 8.24265 34.1498C9.28415 35.1912 10.9787 35.1912 12.0202 34.1498L13.7405 32.4292C13.9524 32.2173 13.9524 31.8741 13.7405 31.6623C13.5286 31.4504 13.1854 31.4504 12.9736 31.6623L11.253 33.3825C10.6347 34.0012 9.6282 34.0012 9.00958 33.3825C8.39124 32.7639 8.39124 31.7577 9.00958 31.1391L11.7507 28.398C12.5922 27.5567 12.5922 26.1879 11.7507 25.3464C10.9092 24.5049 9.54035 24.5049 8.69914 25.3464L8.03616 26.0091C7.41754 26.6277 6.41136 26.6277 5.79273 26.0093C5.17411 25.3907 5.17411 24.3843 5.79273 23.7659L10.6669 18.8918C10.9722 18.7409 11.3072 18.5616 11.6753 18.3494C11.8691 18.7799 12.142 19.1819 12.4931 19.533L13.475 20.5149C11.977 23.1914 12.2948 24.0207 12.6857 24.4117C13.0764 24.8023 13.906 25.1204 16.5825 23.6221L17.5641 24.604C17.9152 24.9551 18.3172 25.228 18.7477 25.4221C18.5353 25.7904 18.3559 26.1254 18.205 26.4311C18.2039 26.4322 18.2025 26.4331 18.2014 26.4342L14.6617 29.9742C14.4498 30.1858 14.4498 30.5293 14.6617 30.7411C14.8735 30.953 15.217 30.953 15.4289 30.7411L17.5005 28.6691C17.498 29.1251 17.6548 29.3804 17.8262 29.5522C18.2471 29.9731 19.1768 30.3098 22.375 28.3836C24.1057 27.3412 25.8593 26.0136 26.4915 25.3814C27.4884 24.3843 27.7528 23.0795 27.2387 21.9163ZM8.31525 18.5011C8.24237 18.3037 8.36468 17.3678 9.74374 15.1159C10.7242 13.5154 11.929 11.9267 12.4829 11.3728C13.0922 10.7635 13.8238 10.5559 14.5207 10.7692C13.3614 12.3892 12.5148 13.6829 11.923 14.6399C11.42 15.4532 11.2406 16.3839 11.3649 17.274C9.35505 18.463 8.50225 18.57 8.31525 18.5011ZM14.8842 20.2564C13.5052 22.5083 13.3829 23.4442 13.4558 23.6416C13.6529 23.7142 14.5888 23.5922 16.8407 22.2129C18.4412 21.2327 20.0298 20.0279 20.5838 19.4737C21.6911 18.3666 21.2866 17.1763 20.6036 16.4935C19.9208 15.8105 18.7305 15.406 17.6234 16.5133C17.0695 17.0673 15.8647 18.6559 14.8842 20.2564ZM17.5466 23.0521C19.1717 22.0436 20.7567 20.8352 21.351 20.2409C22.6857 18.9062 22.6939 17.0497 21.3708 15.7263C20.0476 14.4032 18.1912 14.4114 16.8562 15.7464C16.2622 16.3404 15.0537 17.9254 14.045 19.5508L13.2603 18.7661C12.3095 17.8153 12.1391 16.3532 12.8456 15.2108C13.9775 13.3804 16.0537 10.3008 19.516 6.02383C21.2968 3.82418 23.608 2.33779 26.3859 1.60617C28.8736 0.951109 31.2843 1.03161 32.8687 1.21466C34.4596 1.39827 35.6988 2.63749 35.8827 4.2284C35.9889 5.14984 36.0596 6.35122 35.9723 7.68394L30.4281 2.13977C30.2162 1.92791 29.8727 1.92791 29.6609 2.13977C29.449 2.35135 29.449 2.69484 29.6609 2.9067L35.8245 9.07034C35.7446 9.60817 35.637 10.1576 35.4909 10.7112C34.7593 13.4894 33.2729 15.8006 31.0736 17.5811C26.7963 21.0437 23.7167 23.1199 21.8866 24.2515C20.7439 24.9582 19.2821 24.7876 18.3313 23.8368L17.5466 23.0521ZM18.5963 28.7821C18.7934 28.8547 19.7293 28.7327 21.9812 27.3534C23.5817 26.3732 25.1704 25.1684 25.7243 24.6142C26.3384 24.0001 26.5443 23.2716 26.3291 22.5756C24.7085 23.7357 23.4145 24.5823 22.4572 25.1743C21.6439 25.6771 20.7134 25.8565 19.8231 25.7322C18.6341 27.7423 18.5274 28.5951 18.5963 28.7821Z" fill="black"/>
<path id="Shape_18" fill-rule="evenodd" clip-rule="evenodd" d="M0.854201 27.1701C1.89711 26.1275 3.59366 26.1275 4.63657 27.1701C5.67919 28.2131 5.67919 29.9096 4.63628 30.9525C3.59366 31.9951 1.89711 31.9951 0.854201 30.9522C-0.18842 29.9096 -0.18842 28.2131 0.854201 27.1701ZM1.62141 27.9374C1.00165 28.5571 1.00165 29.5656 1.62141 30.1853C2.24116 30.8051 3.2496 30.8051 3.86936 30.1853C4.48911 29.5656 4.48911 28.5571 3.86936 27.9374C3.2496 27.3176 2.24116 27.3176 1.62141 27.9374Z" fill="black"/>
</g>
</svg>
