<svg width="33" height="35" viewBox="0 0 33 35" fill="none" xmlns="http://www.w3.org/2000/svg">
<g id="Icon">
<path id="Shape" d="M31.5041 29.3221C31.5041 26.4695 24.5664 24.1567 16.0084 24.1567C7.45037 24.1567 0.512695 26.4695 0.512695 29.3221C0.512695 32.1748 7.45037 34.4873 16.0084 34.4873C24.5664 34.4873 31.5041 32.1748 31.5041 29.3221Z" fill="#CCF8FF"/>
<path id="Shape_2" d="M16.0084 24.1567C7.45037 24.1567 0.512695 26.4695 0.512695 29.3221C0.512695 31.316 3.90156 33.0459 8.86482 33.9068C15.3395 32.3954 17.6816 28.9149 17.6816 28.9149V24.1866C17.132 24.1669 16.5737 24.1567 16.0084 24.1567V24.1567Z" fill="#ABEBF4"/>
<path id="Shape_3" fill-rule="evenodd" clip-rule="evenodd" d="M4.64471 11.8761C4.64471 5.6004 9.73241 0.512695 16.0084 0.512695C22.2841 0.512695 27.3718 5.6004 27.3718 11.8761C27.3718 16.0877 22.2545 23.486 18.8878 27.8973C17.4381 29.7969 14.5787 29.7969 13.1288 27.8973C9.76232 23.486 4.64471 16.088 4.64471 11.8761ZM10.6256 11.8761C10.6256 14.8489 13.0356 17.2589 16.0084 17.2589C18.9812 17.2589 21.3912 14.8489 21.3912 11.8761C21.3912 8.90354 18.981 6.49361 16.0084 6.49361C13.0356 6.49361 10.6256 8.90327 10.6256 11.8761Z" fill="#FF929F"/>
<path id="Shape_4" d="M13.223 16.4828C11.666 15.5394 10.6256 13.8293 10.6256 11.876C9.46912 6.40697 12.4729 1.0915 12.4855 1.06934C7.93451 2.55241 4.64471 6.83022 4.64471 11.876C4.64471 16.0878 9.76232 23.4859 13.1288 27.8972C14.5787 29.7968 17.4381 29.7968 18.8878 27.8972C19.4149 27.2066 19.9847 26.4429 20.5714 25.6296C18.687 22.2421 15.5037 19.281 13.223 16.4828Z" fill="#FF737D"/>
<path id="Shape_5" d="M29.6266 26.2607C28.226 25.4673 26.238 24.8062 23.8772 24.349C23.5989 24.2951 23.3303 24.4769 23.2764 24.7549C23.2227 25.0329 23.4043 25.302 23.6823 25.3557C25.9354 25.792 27.8161 26.4134 29.1214 27.1531C29.9743 27.6364 30.9914 28.4052 30.9914 29.3222C30.9914 30.4303 29.4258 31.6141 26.8033 32.4881C23.9274 33.4467 20.0937 33.9746 16.0084 33.9746C11.9228 33.9746 8.0891 33.4467 5.21347 32.4881C2.59098 31.6141 1.02539 30.4303 1.02539 29.3222C1.02539 28.4711 1.93035 27.5766 3.57365 26.8036C5.28103 26.0001 7.63008 25.3872 10.3826 25.0249C11.1639 26.1341 11.9567 27.2068 12.7213 28.2084C13.5101 29.2421 14.7079 29.8349 16.0084 29.8349C17.3085 29.8349 18.5064 29.2421 19.2952 28.2084C23.2136 23.074 27.8845 16.0727 27.8845 11.8761C27.8845 5.32776 22.557 0 16.0084 0C11.3581 0 7.11124 2.73705 5.18864 6.97292C5.07168 7.23061 5.1857 7.53448 5.44365 7.65144C5.70133 7.7684 6.00521 7.65438 6.12244 7.39643C7.87895 3.52612 11.7594 1.02539 16.0084 1.02539C21.9914 1.02539 26.8591 5.89306 26.8591 11.8761C26.8591 13.643 25.7704 18.0335 18.4803 27.5862C17.8869 28.3635 16.986 28.8095 16.0084 28.8095C15.0305 28.8095 14.1296 28.3635 13.5365 27.5862C6.24607 18.0335 5.15766 13.643 5.15766 11.8761C5.15766 10.976 5.26794 10.0811 5.48557 9.21677C5.555 8.94226 5.38837 8.66348 5.11387 8.59432C4.8391 8.52516 4.56059 8.69179 4.49142 8.96629C4.25297 9.91238 4.13227 10.8913 4.13227 11.8761C4.13227 15.0236 6.75957 19.7486 9.72626 24.0807C7.09309 24.4641 4.82788 25.0801 3.13705 25.8756C1.70605 26.5491 0 27.6936 0 29.3222C0 30.9401 1.73622 32.4098 4.88903 33.4608C7.86667 34.4534 11.8158 35 16.0084 35C20.201 35 24.1498 34.4534 27.1277 33.4608C30.2805 32.4098 32.0168 30.9401 32.0168 29.3222C32.0168 27.9112 30.7171 26.8786 29.6266 26.2607Z" fill="black"/>
<path id="Shape_6" fill-rule="evenodd" clip-rule="evenodd" d="M16.0084 5.98071C19.2589 5.98071 21.9038 8.62537 21.9038 11.8762C21.9038 15.127 19.2589 17.7716 16.0084 17.7716C12.7576 17.7716 10.1129 15.127 10.1129 11.8762C10.1129 8.62563 12.7576 5.98071 16.0084 5.98071ZM16.0084 7.0061C13.3229 7.0061 11.1383 9.19093 11.1383 11.8762C11.1383 14.5617 13.3231 16.7462 16.0084 16.7462C18.6936 16.7462 20.8784 14.5617 20.8784 11.8762C20.8784 9.19093 18.6936 7.0061 16.0084 7.0061Z" fill="black"/>
</g>
</svg>
